<svg width="800" height="800" viewBox="0 0 800 800" fill="none" xmlns="http://www.w3.org/2000/svg">
<mask id="mask0_32_39" style="mask-type:luminance" maskUnits="userSpaceOnUse" x="422" y="50" width="328" height="328">
<path d="M750 377.776L422.243 377.776L422.243 50L750 50V377.776Z" fill="white"/>
</mask>
<g mask="url(#mask0_32_39)">
<path fill-rule="evenodd" clip-rule="evenodd" d="M429.079 337.942L669.249 97.7681L492.24 97.7681C479.351 97.7681 468.909 87.315 468.909 74.4357C468.909 61.5565 479.351 51.1032 492.24 51.1032L725.574 51.1032C727.105 51.1032 728.63 51.2661 730.139 51.57C730.85 51.7057 731.49 51.9662 732.169 52.1616C732.95 52.395 733.732 52.5686 734.497 52.8834C735.295 53.2145 736.027 53.665 736.776 54.0883C737.357 54.4031 737.954 54.6582 738.513 55.0327C741.069 56.7369 743.273 58.9404 744.977 61.4967C745.362 62.0665 745.617 62.6852 745.943 63.2823C746.35 64.015 746.795 64.726 747.121 65.5076C747.435 66.2783 747.625 67.0815 747.859 67.8685C748.054 68.5306 748.315 69.1711 748.44 69.8604C748.743 71.3801 748.906 72.9051 748.906 74.4357V307.76C748.906 320.644 738.453 331.098 725.574 331.098C712.695 331.098 702.242 320.645 702.242 307.76V130.762L462.073 370.936C457.514 375.501 451.555 377.775 445.579 377.775C439.604 377.775 433.645 375.501 429.08 370.936C419.973 361.829 419.973 347.055 429.08 337.943" fill="#D53C0D"/>
</g>
<mask id="mask1_32_39" style="mask-type:luminance" maskUnits="userSpaceOnUse" x="50" y="422" width="328" height="328">
<path d="M377.771 750H49.9999L49.9999 422.238L377.771 422.238L377.771 750Z" fill="white"/>
</mask>
<g mask="url(#mask1_32_39)">
<path fill-rule="evenodd" clip-rule="evenodd" d="M74.4402 468.894C87.3191 468.894 97.7722 479.347 97.7722 492.226L97.7722 669.238L337.942 429.064C347.054 419.957 361.827 419.957 370.934 429.064C380.047 438.176 380.047 452.949 370.934 462.057L130.765 702.231H307.759C320.643 702.231 331.096 712.684 331.096 725.563C331.096 738.453 320.643 748.895 307.759 748.895H74.4388C72.9082 748.895 71.3833 748.733 69.8744 748.44C69.1634 748.304 68.523 748.032 67.8446 747.837C67.0631 747.615 66.2816 747.425 65.5109 747.11C64.7185 746.784 63.9857 746.328 63.2368 745.91C62.6561 745.596 62.0591 745.341 61.5001 744.977C58.9439 743.262 56.7404 741.069 55.0363 738.502C54.6509 737.932 54.3958 737.313 54.0702 736.727C53.6577 735.984 53.2181 735.267 52.8871 734.486C52.5723 733.72 52.3877 732.923 52.1544 732.13C51.9536 731.468 51.6985 730.822 51.5737 730.138C51.2697 728.619 51.1069 727.094 51.1069 725.563L51.1069 492.225C51.1069 479.346 61.5598 468.893 74.4389 468.893" fill="#D53C0D"/>
</g>
</svg>
