<svg width="800" height="800" viewBox="0 0 800 800" fill="none" xmlns="http://www.w3.org/2000/svg">
<path d="M706.661 143.703C682.96 130.367 665.177 117.039 647.402 105.181C602.956 74.071 567.404 48.8851 465.184 32.5875C422.223 26.6625 410.372 57.7734 402.963 79.9953C394.075 103.696 388.15 112.59 370.367 112.59C312.593 112.59 293.331 99.2552 265.183 78.518C251.847 68.1454 235.557 57.7791 213.333 45.9229C269.63 16.2975 331.853 0 400 0C522.96 0 632.591 56.2961 706.665 143.703H706.661ZM183.703 63.7053C213.329 77.0405 232.591 90.3685 248.889 102.227C278.514 124.45 303.701 140.748 370.371 140.748C410.37 140.748 422.221 109.638 431.107 88.8987C439.995 63.7128 444.443 57.7885 460.733 60.7507C555.552 75.5636 585.177 96.3098 631.101 127.42C657.764 146.68 690.36 168.903 745.172 195.567C764.432 228.162 779.245 265.198 789.618 303.712C768.879 309.637 752.581 311.122 737.768 312.6C708.143 315.562 682.956 317.047 644.435 357.045C576.287 426.677 573.325 444.452 570.363 537.784C568.878 573.344 591.102 585.192 605.922 592.596C619.258 600.006 628.146 604.446 632.586 622.221C642.959 672.593 622.213 724.44 616.288 736.291C577.766 759.992 536.289 779.252 490.358 789.625C459.248 774.812 432.584 771.849 411.838 768.886C377.765 764.438 358.503 761.476 334.802 718.514C312.577 678.515 324.429 656.294 337.764 629.63C352.577 600.005 367.39 567.41 345.174 514.076C322.95 460.742 288.877 450.369 260.729 440.005C234.066 431.117 210.357 423.707 192.582 383.709C186.656 370.373 194.067 358.523 217.768 339.263C232.581 325.928 247.394 314.077 245.916 296.302C245.916 285.93 238.506 277.043 226.656 268.154C165.92 226.671 133.322 235.559 93.3234 245.93C74.0635 250.378 53.3243 256.303 25.1759 257.781C56.294 177.776 112.591 109.629 183.701 63.7159L183.703 63.7053ZM0 400.007C0 361.486 5.92516 322.972 16.2981 287.414C53.335 287.414 80.0061 280.004 100.743 275.564C137.78 265.191 160.002 260.751 208.89 293.34C213.338 296.302 214.815 297.787 214.815 297.787C213.33 302.235 202.965 311.122 197.04 317.047C177.78 334.822 148.152 360.008 164.444 397.044C188.145 447.416 220.741 459.265 250.367 468.153C277.03 477.041 300.739 484.451 317.037 525.926C334.812 565.925 322.962 589.634 309.627 616.297C294.814 645.922 278.516 680.004 308.142 733.33C339.252 789.627 370.363 794.066 407.4 798.515C410.362 798.515 411.847 798.515 414.81 800H398.512C179.264 800 0.00760984 620.746 0.00760984 400.014L0 400.007ZM657.781 705.181C663.707 679.995 668.154 647.408 660.744 616.297C654.819 585.187 634.08 574.814 619.26 567.41C604.447 560 598.521 557.038 598.521 539.262C601.483 450.379 601.483 441.483 663.706 377.783C694.817 346.673 711.115 345.188 739.263 342.224C754.076 340.739 771.858 339.261 794.075 333.336C797.037 355.56 800 377.782 800 400.005C800 522.956 745.189 631.108 657.781 705.181Z" fill="white"/>
</svg>
