<svg width="800" height="800" viewBox="0 0 800 800" fill="none" xmlns="http://www.w3.org/2000/svg">
<mask id="mask0_32_41" style="mask-type:luminance" maskUnits="userSpaceOnUse" x="422" y="50" width="328" height="328">
<path d="M422.237 50H750V377.776H422.237V50Z" fill="white"/>
</mask>
<g mask="url(#mask0_32_41)">
<path fill-rule="evenodd" clip-rule="evenodd" d="M743.164 89.8346L502.99 330.008H680.001C692.891 330.008 703.334 340.462 703.334 353.341C703.334 366.22 692.891 376.673 680.001 376.673H446.663C445.133 376.673 443.608 376.51 442.099 376.207C441.388 376.071 440.747 375.81 440.069 375.615C439.288 375.382 438.506 375.208 437.741 374.893C436.943 374.562 436.21 374.112 435.461 373.688C434.88 373.373 434.283 373.118 433.724 372.744C431.168 371.04 428.965 368.836 427.26 366.28C426.875 365.71 426.62 365.091 426.294 364.494C425.887 363.762 425.442 363.051 425.117 362.269C424.802 361.498 424.612 360.695 424.379 359.908C424.183 359.246 423.923 358.605 423.798 357.916C423.494 356.396 423.331 354.871 423.331 353.341V120.017C423.331 107.132 433.784 96.6788 446.663 96.6788C459.543 96.6788 469.996 107.132 469.996 120.017V297.014L710.17 56.8402C714.729 52.2757 720.688 50.0016 726.663 50.0016C732.639 50.0016 738.598 52.2757 743.163 56.8402C752.27 65.9474 752.27 80.7214 743.163 89.8332" fill="#D53C0D"/>
</g>
<mask id="mask1_32_41" style="mask-type:luminance" maskUnits="userSpaceOnUse" x="50" y="422" width="328" height="328">
<path d="M50 422.238H377.776V750H50V422.238Z" fill="white"/>
</mask>
<g mask="url(#mask1_32_41)">
<path fill-rule="evenodd" clip-rule="evenodd" d="M353.337 703.343C340.457 703.343 330.004 692.89 330.004 680.011V503L89.8304 743.174C80.7178 752.281 65.945 752.281 56.8374 743.174C47.7248 734.061 47.7248 719.288 56.8374 710.181L297.011 470.007H120.014C107.129 470.007 96.676 459.554 96.676 446.675C96.676 433.785 107.129 423.342 120.014 423.342H353.338C354.869 423.342 356.394 423.505 357.903 423.798C358.614 423.934 359.254 424.205 359.932 424.4C360.714 424.623 361.495 424.813 362.266 425.128C363.059 425.453 363.791 425.909 364.54 426.327C365.121 426.642 365.718 426.897 366.277 427.261C368.833 428.976 371.037 431.168 372.741 433.736C373.126 434.305 373.381 434.924 373.707 435.51C374.119 436.254 374.559 436.97 374.89 437.752C375.205 438.517 375.389 439.315 375.623 440.107C375.824 440.769 376.079 441.415 376.204 442.099C376.508 443.619 376.67 445.144 376.67 446.675V680.012C376.67 692.892 366.217 703.345 353.338 703.345" fill="#D53C0D"/>
</g>
</svg>
