<svg width="800" height="800" viewBox="0 0 800 800" fill="none" xmlns="http://www.w3.org/2000/svg">
<path d="M647.429 152.453C581.785 86.8393 492.765 49.9879 399.943 50C307.13 50.0118 218.118 86.8984 152.488 152.53C86.8621 218.168 50 307.178 50 400C50 492.813 86.8621 581.824 152.488 647.47C218.114 713.115 307.121 749.988 399.943 750C492.756 750.018 581.783 713.161 647.429 647.547C690.893 604.101 722.155 549.979 738.064 490.611C753.979 431.249 753.979 368.745 738.064 309.377C722.155 250.022 690.893 195.895 647.429 152.441V152.453ZM602.247 602.361C562.211 642.444 511.192 669.757 455.632 680.834C400.072 691.91 342.475 686.257 290.131 664.593C237.786 642.935 193.042 606.226 161.563 559.127C130.077 512.028 113.273 456.651 113.273 400.008C113.273 343.352 130.077 287.975 161.563 240.873C193.044 193.774 237.786 157.071 290.131 135.407C342.476 113.743 400.074 108.094 455.632 119.172C511.19 130.251 562.211 157.556 602.247 197.641C655.871 251.336 685.996 324.119 685.996 400.003C685.996 475.887 655.871 548.667 602.247 602.365V602.361Z" fill="#D02424"/>
<path d="M558.971 242.501C553.015 236.581 544.951 233.253 536.543 233.253C528.136 233.253 520.072 236.58 514.109 242.501L399.887 355.137L287.251 242.501C279.057 235.491 267.873 233.099 257.53 236.16C247.192 239.215 239.099 247.309 236.043 257.647C232.982 267.99 235.374 279.174 242.384 287.368L355.02 400.004L242.384 512.635C236.463 518.597 233.136 526.661 233.136 535.069C233.136 543.476 236.463 551.54 242.384 557.503C248.393 563.459 256.523 566.774 264.977 566.727C273.325 566.691 281.324 563.382 287.251 557.503L399.886 444.867L512.517 559.089C518.444 564.969 526.443 568.284 534.791 568.32C543.796 568.811 552.582 565.454 558.971 559.089C564.898 553.133 568.225 545.069 568.225 536.662C568.225 528.254 564.898 520.19 558.971 514.228L444.748 400.005L558.971 287.37C564.898 281.408 568.225 273.344 568.225 264.936C568.225 256.528 564.898 248.464 558.971 242.501Z" fill="#D02424"/>
</svg>
