<svg width="800" height="588" viewBox="0 0 800 588" fill="none" xmlns="http://www.w3.org/2000/svg">
<path d="M623.916 170.184C616.384 165.099 608.564 160.438 600.51 156.238C573.526 142.284 545.06 131.418 515.658 123.828C500.586 119.984 485.294 117.086 469.875 115.156C462.139 114.18 454.372 113.446 446.576 112.962V112.954C439.142 111.789 431.594 111.539 424.093 112.213L413.853 131.244C410.412 137.525 403.848 141.445 396.686 141.49C393.457 141.452 390.28 140.65 387.422 139.145C382.884 136.647 379.489 132.485 377.961 127.529C376.464 122.58 377.023 117.23 379.519 112.697L379.814 112.213H377.764C325.469 112.099 273.727 122.905 225.84 143.95C177.955 164.986 134.991 195.802 99.6818 234.401C99.4851 234.597 99.0994 234.696 98.9028 234.983C98.3205 235.566 94.4182 239.864 88.5649 246.886C87.1053 248.74 85.7366 250.496 84.277 252.35C82.4242 254.696 80.3748 257.231 78.227 260.061C74.6196 264.745 71.1031 269.528 67.6924 274.408C65.4463 277.73 63.1095 281.143 60.7652 284.753C60.0845 285.729 59.3963 286.607 58.8141 287.583C58.7157 287.681 58.7157 287.878 58.6174 288.067V288.082C46.8502 305.964 36.9128 324.996 28.9655 344.881C28.7991 345.192 28.663 345.517 28.5798 345.857C27.8992 347.515 27.211 349.179 26.6287 350.837C8.93997 395.166 -0.0979362 442.477 0.000800335 490.209V540.184V540.176C-0.0294498 556.378 8.16071 571.481 21.75 580.29C35.3549 589.091 52.4764 590.445 67.2985 583.9L232.14 510.504C251.651 501.817 269.499 476.83 288.42 450.284C307.046 424.223 328.017 394.748 345.282 391.918L454.719 391.926C471.985 394.756 492.955 424.23 511.582 450.292C530.503 476.837 548.351 501.825 567.862 510.512L669.593 555.794C670.44 556.127 671.325 556.324 672.233 556.377C672.527 556.574 672.815 556.861 673.11 557.058L713.1 574.818V574.826C713.66 575.045 714.25 575.182 714.855 575.212C715.611 575.938 716.465 576.566 717.388 577.066L732.702 583.899C747.525 590.445 764.646 589.09 778.251 580.289C791.841 571.481 800.031 556.376 800 540.176V490.209C799.985 435.308 787.975 381.082 764.834 331.313C741.875 281.891 708.539 237.986 667.11 202.603C660.145 196.655 652.976 190.972 645.588 185.539C638.464 180.302 631.279 175.096 623.914 170.185L623.916 170.184ZM291.735 333.66C291.735 339.32 277.495 343.808 271.936 343.808H251.941C241.013 343.815 232.149 352.684 232.141 363.625V383.534C232.141 389.096 227.657 403.346 222.098 403.346H199.759C194.2 403.346 189.715 389.097 189.715 383.534V363.625C189.7 358.351 187.598 353.304 183.87 349.588C180.134 345.872 175.082 343.791 169.811 343.807H149.915C144.356 343.807 130.115 339.319 130.115 333.659L130.017 311.305C130.017 305.743 144.257 301.256 149.816 301.256H169.811C175.083 301.271 180.134 299.19 183.87 295.475C187.598 291.759 189.701 286.712 189.716 281.445V261.536C189.716 255.974 194.2 241.628 199.759 241.628H222.099C227.657 241.628 232.142 255.975 232.142 261.536V281.445C232.149 292.38 241.012 301.249 251.941 301.257H271.936C277.495 301.257 291.736 305.744 291.736 311.306L291.735 333.66ZM525.044 356.104C516.196 356.104 507.711 352.593 501.456 346.335C495.201 340.069 491.685 331.579 491.685 322.724C491.685 313.878 495.201 305.388 501.456 299.121C507.71 292.863 516.195 289.352 525.044 289.352C533.892 289.352 542.377 292.863 548.632 299.121C554.887 305.387 558.403 313.877 558.403 322.724C558.411 331.585 554.894 340.076 548.64 346.335C542.386 352.593 533.893 356.112 525.044 356.104ZM597.909 420.032C589.061 420.032 580.576 416.521 574.321 410.255C568.059 403.997 564.55 395.507 564.55 386.652C564.55 377.806 568.059 369.316 574.321 363.049C580.575 356.791 589.061 353.273 597.909 353.273C606.758 353.273 615.235 356.791 621.498 363.049C627.752 369.315 631.269 377.806 631.269 386.652C631.254 395.506 627.737 403.989 621.483 410.248C615.228 416.498 606.75 420.025 597.909 420.032ZM597.909 291.791C589.061 291.791 580.576 288.272 574.321 282.014C568.059 275.756 564.55 267.265 564.55 258.411C564.55 249.557 568.059 241.067 574.321 234.808C580.575 228.55 589.061 225.031 597.909 225.031C606.758 225.031 615.235 228.55 621.498 234.808C627.752 241.066 631.269 249.557 631.269 258.411C631.238 267.257 627.714 275.725 621.46 281.983C615.213 288.234 606.742 291.761 597.909 291.791ZM667.643 356.104C658.802 356.104 650.317 352.593 644.055 346.335C637.8 340.069 634.284 331.579 634.284 322.724C634.284 313.878 637.8 305.388 644.055 299.121C650.316 292.863 658.801 289.352 667.643 289.352C676.491 289.352 684.976 292.863 691.231 299.121C697.493 305.387 701.002 313.877 701.002 322.724C701.01 331.585 697.493 340.076 691.239 346.335C684.984 352.593 676.492 356.112 667.643 356.104Z" fill="white"/>
<path d="M435.407 70.5147L412.976 112.188L405.27 126.535C403.584 129.714 400.286 131.704 396.686 131.712C395.053 131.704 393.45 131.303 392.005 130.539C387.309 127.92 385.577 122.018 388.103 117.266L390.833 112.188L413.264 70.5146L388.489 59.6782L388.496 59.6858C386.001 58.5961 384.087 56.5076 383.225 53.9271C382.34 51.3543 382.552 48.5315 383.815 46.1177L405.86 5.12636H405.853C408.416 0.381735 414.33 -1.38906 419.072 1.1762C423.814 3.7339 425.583 9.65148 423.02 14.3961L406.049 46.0192L430.825 56.9538C433.313 58.051 435.226 60.1471 436.103 62.7277C436.973 65.3005 436.723 68.1312 435.407 70.5147Z" fill="white"/>
</svg>
