<svg width="800" height="800" viewBox="0 0 800 800" fill="none" xmlns="http://www.w3.org/2000/svg">
<path d="M465.633 291.875H334.7C317.701 291.875 301.478 295.024 286.378 300.511V256.188C286.378 195.087 336.08 145.379 397.187 145.379C458.289 145.379 507.997 195.081 507.997 256.188V306.688L528.328 306.725L507.997 343.431V365.403H559.376L559.37 256.188C559.37 166.753 486.617 94 397.183 94C307.742 94 234.98 166.759 234.98 256.188V332.939C209.064 358.617 193 394.206 193 433.567V564.5C193 642.753 256.441 706.2 334.7 706.2H465.633C543.886 706.2 607.333 642.759 607.333 564.5L607.327 433.561C607.339 355.307 543.905 291.867 465.639 291.867L465.633 291.875Z" fill="white"/>
</svg>
