<svg width="800" height="800" viewBox="0 0 800 800" fill="none" xmlns="http://www.w3.org/2000/svg">
<path d="M400 547.197C445.288 547.197 482 583.909 482 629.197C482 674.484 445.288 711.197 400 711.197C354.713 711.197 318 674.484 318 629.197C318 583.909 354.713 547.197 400 547.197ZM400 317.606C445.288 317.606 482 354.319 482 399.606C482 444.894 445.288 481.606 400 481.606C354.713 481.606 318 444.894 318 399.606C318 354.319 354.713 317.606 400 317.606ZM400 88C445.288 88 482 124.712 482 170C482 215.287 445.288 252 400 252C354.713 252 318 215.287 318 170C318 124.712 354.713 88 400 88Z" fill="white"/>
</svg>
