<svg width="800" height="800" viewBox="0 0 800 800" fill="none" xmlns="http://www.w3.org/2000/svg">
<path d="M85.125 165.125C85.125 120.942 120.942 85.125 165.125 85.125H241.281C285.464 85.125 321.281 120.942 321.281 165.125V634.891C321.281 679.073 285.464 714.891 241.281 714.891H165.125C120.942 714.891 85.125 679.073 85.125 634.891V165.125Z" fill="#04BA6C"/>
<path d="M478.719 165.125C478.719 120.942 514.536 85.125 558.719 85.125H634.875C679.058 85.125 714.875 120.942 714.875 165.125V634.891C714.875 679.073 679.058 714.891 634.875 714.891H558.719C514.536 714.891 478.719 679.073 478.719 634.891V165.125Z" fill="#04BA6C"/>
</svg>
