<svg width="800" height="800" viewBox="0 0 800 800" fill="none" xmlns="http://www.w3.org/2000/svg">
<path d="M351.188 74.8906C-114.047 115.827 -38.4843 775.5 286.638 723.547C378.739 708.587 337.803 627.508 351.188 570.831C385.038 428.345 658.188 681.042 759.75 477.155C845.559 304.748 614.12 52.0625 351.188 74.8906ZM163.828 300.812C189.805 300.812 211.063 322.066 211.063 348.047C211.063 374.023 189.809 395.281 163.828 395.281C137.852 395.281 116.594 374.028 116.594 348.047C116.6 322.064 137.852 300.812 163.828 300.812ZM169.34 588.922C143.363 588.922 122.105 567.669 122.105 541.687C122.105 515.711 143.358 494.453 169.34 494.453C195.316 494.453 216.574 515.706 216.574 541.687C217.355 567.664 196.102 588.922 169.34 588.922ZM300.804 260.656C274.827 260.656 253.569 239.403 253.569 213.422C253.569 187.445 274.822 166.187 300.804 166.187C326.78 166.187 348.038 187.441 348.038 213.422C348.032 239.405 326.78 260.656 300.804 260.656ZM503.116 275.616C477.14 275.616 455.882 254.363 455.882 228.382C455.882 202.405 477.135 181.147 503.116 181.147C529.093 181.147 550.351 202.4 550.351 228.382C550.351 254.358 529.097 275.616 503.116 275.616ZM634.58 395.269C608.604 395.269 587.346 374.016 587.346 348.035C587.346 322.058 608.599 300.8 634.58 300.8C660.557 300.8 681.815 322.053 681.815 348.035C681.815 374.011 660.557 395.269 634.58 395.269Z" fill="white"/>
</svg>
