<svg width="800" height="800" viewBox="0 0 800 800" fill="none" xmlns="http://www.w3.org/2000/svg">
<path d="M85 165C85 120.817 120.817 85 165 85H555C599.183 85 635 120.817 635 165V635C635 679.183 599.183 715 555 715H165C120.817 715 85 679.183 85 635V165Z" fill="#E43D40"/>
<path d="M478.719 165.125C478.719 120.942 514.536 85.125 558.719 85.125H634.875C679.058 85.125 714.875 120.942 714.875 165.125V634.891C714.875 679.073 679.058 714.891 634.875 714.891H558.719C514.536 714.891 478.719 679.073 478.719 634.891V165.125Z" fill="#E43D40"/>
</svg>
