<svg width="800" height="800" viewBox="0 0 800 800" fill="none" xmlns="http://www.w3.org/2000/svg">
<path d="M462.225 338.867L462.219 338.875H331.286C314.287 338.875 298.064 342.024 282.964 347.511V213.002C282.964 151.9 332.666 102.193 393.773 102.193C435.487 102.193 471.89 125.357 490.792 159.5L548.708 165C528.197 98.9279 466.499 50.8137 393.769 50.8137C304.328 50.8137 231.566 123.573 231.566 213.001V379.939C205.65 405.617 189.586 441.206 189.586 480.567V611.5C189.586 689.753 253.027 753.2 331.286 753.2H462.219C540.472 753.2 603.919 689.759 603.919 611.5L603.913 480.561C603.925 402.307 540.491 338.867 462.225 338.867Z" fill="white"/>
</svg>
